<svg width="23" height="15" viewBox="0 0 23 15" fill="none" xmlns="http://www.w3.org/2000/svg">
<path fill-rule="evenodd" clip-rule="evenodd" d="M22.4375 7.50001C22.4375 7.29281 22.3552 7.0941 22.2087 6.94758C22.0621 6.80107 21.8634 6.71876 21.6562 6.71876H3.22967L8.14686 1.80314C8.2195 1.7305 8.27712 1.64426 8.31643 1.54936C8.35574 1.45445 8.37597 1.35273 8.37597 1.25001C8.37597 1.14729 8.35574 1.04557 8.31643 0.950661C8.27712 0.855756 8.2195 0.769523 8.14686 0.696885C8.07422 0.624248 7.98799 0.566629 7.89308 0.527318C7.79818 0.488007 7.69646 0.467773 7.59373 0.467773C7.49101 0.467773 7.38929 0.488007 7.29439 0.527318C7.19948 0.566629 7.11325 0.624248 7.04061 0.696885L0.79061 6.94688C0.717855 7.01946 0.660132 7.10567 0.620747 7.20058C0.581362 7.2955 0.561089 7.39725 0.561089 7.50001C0.561089 7.60277 0.581362 7.70452 0.620747 7.79944C0.660132 7.89435 0.717855 7.98056 0.79061 8.05313L7.04061 14.3031C7.11325 14.3758 7.19948 14.4334 7.29439 14.4727C7.38929 14.512 7.49101 14.5322 7.59373 14.5322C7.69646 14.5322 7.79818 14.512 7.89308 14.4727C7.98799 14.4334 8.07422 14.3758 8.14686 14.3031C8.2195 14.2305 8.27712 14.1443 8.31643 14.0494C8.35574 13.9545 8.37597 13.8527 8.37597 13.75C8.37597 13.6473 8.35574 13.5456 8.31643 13.4507C8.27712 13.3558 8.2195 13.2695 8.14686 13.1969L3.22967 8.28126H21.6562C21.8634 8.28126 22.0621 8.19895 22.2087 8.05244C22.3552 7.90592 22.4375 7.70721 22.4375 7.50001Z" fill="white"/>
</svg>
