<svg width="25" height="25" viewBox="0 0 25 25" fill="none" xmlns="http://www.w3.org/2000/svg">
<path fill-rule="evenodd" clip-rule="evenodd" d="M1.56251 12.5C1.56251 12.2928 1.64482 12.0941 1.79133 11.9476C1.93784 11.8011 2.13656 11.7188 2.34376 11.7188H20.7703L15.8531 6.80314C15.7805 6.7305 15.7229 6.64426 15.6836 6.54936C15.6443 6.45445 15.624 6.35273 15.624 6.25001C15.624 6.14729 15.6443 6.04557 15.6836 5.95066C15.7229 5.85576 15.7805 5.76952 15.8531 5.69689C15.9258 5.62425 16.012 5.56663 16.1069 5.52732C16.2018 5.48801 16.3035 5.46777 16.4063 5.46777C16.509 5.46777 16.6107 5.48801 16.7056 5.52732C16.8005 5.56663 16.8867 5.62425 16.9594 5.69689L23.2094 11.9469C23.2821 12.0195 23.3399 12.1057 23.3792 12.2006C23.4186 12.2955 23.4389 12.3972 23.4389 12.5C23.4389 12.6028 23.4186 12.7045 23.3792 12.7994C23.3399 12.8944 23.2821 12.9806 23.2094 13.0531L16.9594 19.3031C16.8867 19.3758 16.8005 19.4334 16.7056 19.4727C16.6107 19.512 16.509 19.5322 16.4063 19.5322C16.3035 19.5322 16.2018 19.512 16.1069 19.4727C16.012 19.4334 15.9258 19.3758 15.8531 19.3031C15.7805 19.2305 15.7229 19.1443 15.6836 19.0494C15.6443 18.9545 15.624 18.8527 15.624 18.75C15.624 18.6473 15.6443 18.5456 15.6836 18.4507C15.7229 18.3558 15.7805 18.2695 15.8531 18.1969L20.7703 13.2813H2.34376C2.13656 13.2813 1.93784 13.1989 1.79133 13.0524C1.64482 12.9059 1.56251 12.7072 1.56251 12.5Z" fill="white"/>
</svg>
