<svg width="50" height="50" viewBox="0 0 50 50" fill="none" xmlns="http://www.w3.org/2000/svg">
<path d="M42.6777 7.32227C37.9559 2.60039 31.6777 0 25 0C18.3222 0 12.0441 2.60039 7.32227 7.32227C2.60049 12.0441 0 18.3222 0 25C0 31.6778 2.60049 37.9559 7.32227 42.6777C12.0441 47.3995 18.3222 50 25 50C31.6777 50 37.9558 47.3995 42.6776 42.6777C47.3996 37.9559 50 31.6777 50 25C50 18.3223 47.3996 12.0441 42.6777 7.32227ZM25 47.0512C12.8409 47.0512 2.94883 37.1591 2.94883 25C2.94883 12.8409 12.8409 2.94883 25 2.94883C37.159 2.94883 47.0511 12.8409 47.0511 24.9999C47.0512 37.1591 37.1591 47.0512 25 47.0512Z" fill="white"/>
<path d="M25.0001 5.83228C14.4308 5.83228 5.83218 14.4309 5.83218 25C5.83218 35.5693 14.4308 44.1679 25.0001 44.1679C35.5692 44.1679 44.1678 35.5693 44.1678 25C44.1679 14.4309 35.5693 5.83228 25.0001 5.83228ZM37.4445 35.3594L35.9663 33.8811C35.3907 33.3052 34.4571 33.3054 33.8811 33.8811C33.3051 34.4568 33.3053 35.3903 33.8811 35.9663L35.3593 37.4446C32.9041 39.4919 29.8358 40.8273 26.4745 41.132V39.0341C26.4745 38.2199 25.8143 37.5597 25.0001 37.5597C24.1858 37.5597 23.5256 38.2199 23.5256 39.0341V41.132C20.1642 40.8273 17.0961 39.4919 14.6407 37.4446L16.119 35.9663C16.6948 35.3906 16.6948 34.457 16.119 33.8811C15.5433 33.3054 14.6097 33.3054 14.0338 33.8811L12.5555 35.3594C10.5082 32.9042 9.17281 29.836 8.86812 26.4745H10.9661C11.7803 26.4745 12.4405 25.8143 12.4405 25C12.4405 24.1858 11.7803 23.5256 10.9661 23.5256H8.86812C9.17281 20.1642 10.5082 17.0961 12.5555 14.6408L14.0338 16.1191C14.3217 16.407 14.6991 16.551 15.0763 16.551C15.4536 16.551 15.831 16.407 16.1188 16.1191C16.6946 15.5434 16.6946 14.6098 16.1188 14.0339L14.6405 12.5556C17.0958 10.5083 20.164 9.1729 23.5254 8.86821V10.9661C23.5254 11.7803 24.1856 12.4405 24.9999 12.4405C25.8141 12.4405 26.4743 11.7803 26.4743 10.9661V8.86821C29.8357 9.1729 32.9039 10.5083 35.3591 12.5556L33.8809 14.0339C33.3051 14.6097 33.3051 15.5432 33.8809 16.1191C34.1688 16.4071 34.5462 16.551 34.9234 16.551C35.3006 16.551 35.6781 16.407 35.9659 16.1191L37.4441 14.6408C39.4915 17.096 40.8267 20.1643 41.1315 23.5255H39.0337C38.2194 23.5255 37.5592 24.1857 37.5592 25C37.5592 25.8142 38.2195 26.4745 39.0337 26.4745H41.1316C40.8272 29.8359 39.4919 32.9041 37.4445 35.3594Z" fill="white"/>
<path d="M33.0777 23.5254H25C24.609 23.5254 24.234 23.6808 23.9575 23.9573L18.2458 29.669C17.67 30.2448 17.67 31.1784 18.2458 31.7542C18.5336 32.0421 18.9109 32.1861 19.2882 32.1861C19.6655 32.1861 20.0428 32.0421 20.3307 31.7542L25.6106 26.4743H33.0776C33.8919 26.4743 34.552 25.8142 34.552 24.9999C34.5521 24.1855 33.892 23.5254 33.0777 23.5254Z" fill="white"/>
</svg>
