<svg width="50" height="50" viewBox="0 0 50 50" fill="none" xmlns="http://www.w3.org/2000/svg">
<g clip-path="url(#clip0_1486_218)">
<path d="M46.2391 13.5663L46.2375 13.5274C46.2158 13.0471 46.2013 12.539 46.1925 11.9736C46.1517 9.21676 43.9602 6.93634 41.2029 6.78223C35.4542 6.46141 31.007 4.58687 27.2072 0.883195L27.1748 0.852296C25.9354 -0.284099 24.0658 -0.284099 22.8261 0.852296L22.7936 0.883195C18.9938 4.58687 14.5467 6.46141 8.79793 6.78261C6.04105 6.93634 3.84913 9.21676 3.80832 11.974C3.79992 12.5355 3.78505 13.0437 3.7633 13.5274L3.76101 13.6178C3.64924 19.4798 3.51039 26.7754 5.95103 33.3973C7.29303 37.0388 9.3255 40.2042 11.9916 42.8062C15.0281 45.7695 19.0053 48.122 23.8125 49.7982C23.9689 49.8527 24.1314 49.897 24.297 49.9301C24.5305 49.9767 24.7654 50 25.0004 50C25.2354 50 25.4708 49.9767 25.7039 49.9301C25.8694 49.897 26.0331 49.8523 26.1902 49.7974C30.9918 48.1182 34.9648 45.7645 37.9986 42.8016C40.6635 40.1989 42.696 37.0327 44.0391 33.3904C46.4889 26.7487 46.3505 19.4394 46.2391 13.5663ZM41.2865 32.3753C38.7123 39.3547 33.4576 44.1478 25.2221 47.0279C25.1927 47.0378 25.1614 47.0466 25.129 47.0531C25.0439 47.0699 24.9573 47.0699 24.8711 47.0527C24.8391 47.0462 24.8078 47.0378 24.7788 47.0279C16.5345 44.1532 11.2763 39.3627 8.70408 32.383C6.45456 26.2791 6.58197 19.582 6.69451 13.6738L6.69527 13.641C6.71816 13.1333 6.73342 12.6015 6.74181 12.0171C6.76012 10.793 7.73515 9.78019 8.96158 9.71191C12.2147 9.53033 15.0727 8.90167 17.6987 7.79007C20.3213 6.67999 22.6506 5.11521 24.8188 3.00645C24.9291 2.91337 25.0721 2.91299 25.182 3.00645C27.3507 5.11521 29.6799 6.67999 32.3021 7.79007C34.9281 8.90167 37.7861 9.53033 41.0397 9.71191C42.2661 9.78019 43.2411 10.793 43.259 12.0175C43.2678 12.605 43.2831 13.1367 43.306 13.641C43.4181 19.5561 43.5425 26.2585 41.2865 32.3753Z" fill="white"/>
<path d="M24.9998 12.54C18.1287 12.54 12.5391 18.1301 12.5391 25.0007C12.5391 31.8718 18.1287 37.4618 24.9998 37.4618C31.8704 37.4618 37.4605 31.8718 37.4605 25.0007C37.4605 18.1301 31.8704 12.54 24.9998 12.54ZM24.9998 34.5276C19.7466 34.5276 15.4729 30.254 15.4729 25.0007C15.4729 19.7475 19.7466 15.4739 24.9998 15.4739C30.2526 15.4739 34.5262 19.7475 34.5262 25.0007C34.5262 30.254 30.2526 34.5276 24.9998 34.5276Z" fill="white"/>
<path d="M28.581 21.1324L22.7933 26.9201L21.2225 25.3492C20.6495 24.7762 19.7206 24.7762 19.1476 25.3492C18.5751 25.9221 18.5751 26.851 19.1476 27.4236L21.7561 30.0321C22.0426 30.3186 22.418 30.4616 22.7933 30.4616C23.1687 30.4616 23.5441 30.3186 23.8306 30.0321L30.6558 23.2068C31.2284 22.6339 31.2284 21.705 30.6558 21.1324C30.0829 20.5591 29.154 20.5591 28.581 21.1324Z" fill="white"/>
</g>
<defs>
<clipPath id="clip0_1486_218">
<rect width="50" height="50" fill="white"/>
</clipPath>
</defs>
</svg>
