<svg width="50" height="50" viewBox="0 0 50 50" fill="none" xmlns="http://www.w3.org/2000/svg">
<path d="M46.8776 23.5518H20.2983C19.4977 23.5518 18.8427 24.2068 18.8427 25.0074C18.8427 25.8079 19.4977 26.463 20.2983 26.463H46.8776C47.6782 26.463 48.3332 25.8079 48.3332 25.0074C48.3332 24.2068 47.6927 23.5518 46.8776 23.5518Z" fill="white"/>
<path d="M8.43506 18.2388C4.69416 18.2388 1.6665 21.2664 1.6665 25.0073C1.6665 28.7482 4.69416 31.7759 8.43506 31.7759C12.176 31.7759 15.2036 28.7482 15.2036 25.0073C15.2036 21.2664 12.176 18.2388 8.43506 18.2388ZM8.43506 28.8647C6.29532 28.8647 4.57771 27.1325 4.57771 25.0073C4.57771 22.8676 6.30988 21.15 8.43506 21.15C10.5602 21.15 12.2924 22.8821 12.2924 25.0073C12.2924 27.1325 10.5602 28.8647 8.43506 28.8647Z" fill="white"/>
<path d="M46.8776 5.35669H20.2983C19.4977 5.35669 18.8427 6.01171 18.8427 6.81229C18.8427 7.61288 19.4977 8.2679 20.2983 8.2679H46.8776C47.6782 8.2679 48.3332 7.61288 48.3332 6.81229C48.3332 6.01171 47.6927 5.35669 46.8776 5.35669Z" fill="white"/>
<path d="M8.43506 0C4.69416 0 1.6665 3.02766 1.6665 6.76856C1.6665 10.5095 4.69416 13.5371 8.43506 13.5371C12.176 13.5371 15.2036 10.5095 15.2036 6.76856C15.2036 3.04221 12.176 0.014556 8.43506 0ZM8.43506 10.6405C6.29532 10.6405 4.57771 8.9083 4.57771 6.78311C4.57771 4.65793 6.30988 2.92576 8.43506 2.92576C10.5748 2.92576 12.2924 4.65793 12.2924 6.78311C12.2924 8.9083 10.5602 10.6405 8.43506 10.6405Z" fill="white"/>
<path d="M46.8776 41.7466H20.2983C19.4977 41.7466 18.8427 42.4016 18.8427 43.2022C18.8427 44.0028 19.4977 44.6578 20.2983 44.6578H46.8776C47.6782 44.6578 48.3332 44.0028 48.3332 43.2022C48.3332 42.4016 47.6927 41.7466 46.8776 41.7466Z" fill="white"/>
<path d="M8.43506 36.4629C4.69416 36.4629 1.6665 39.4905 1.6665 43.2314C1.6665 46.9724 4.69416 50 8.43506 50C12.176 50 15.2036 46.9724 15.2036 43.2314C15.2036 39.5051 12.176 36.4629 8.43506 36.4629ZM8.43506 47.1034C6.29532 47.1034 4.57771 45.3712 4.57771 43.246C4.57771 41.1063 6.30988 39.3887 8.43506 39.3887C10.5748 39.3887 12.2924 41.1208 12.2924 43.246C12.2924 45.3712 10.5602 47.1034 8.43506 47.1034Z" fill="white"/>
</svg>
