<svg width="50" height="50" viewBox="0 0 50 50" fill="none" xmlns="http://www.w3.org/2000/svg">
<g clip-path="url(#clip0_1486_220)">
<path d="M49.0057 8.88556C48.8225 8.42335 48.4189 8.08438 47.9321 7.9838C47.4446 7.88302 46.9402 8.03419 46.5888 8.38575L38.9722 16.0024L34.8772 15.1219L33.9969 11.027L41.6135 3.41026C41.965 3.0587 42.116 2.55382 42.0154 2.067C41.9147 1.58009 41.5758 1.17667 41.1137 0.993271C35.8845 -1.08036 29.9357 0.14913 25.9587 4.12589C24.0442 6.04034 22.7296 8.44483 22.1569 11.0796C21.6671 13.3337 21.7358 15.6627 22.3514 17.871L2.0248 38.1977C0.719043 39.5033 0 41.2394 0 43.0859C0 44.9325 0.719043 46.6686 2.0249 47.9743C3.33057 49.2801 5.0666 49.9991 6.91318 49.9991C8.75967 49.9991 10.4958 49.2801 11.8015 47.9743L32.1281 27.6478C34.3364 28.2633 36.6653 28.332 38.9194 27.8421C41.5542 27.2694 43.9588 25.9547 45.8732 24.0403C49.8499 20.0635 51.0794 14.115 49.0057 8.88556ZM43.7846 21.9519C40.7724 24.9641 36.2282 25.995 32.2074 24.5778C31.6713 24.389 31.0744 24.5245 30.6724 24.9265L9.71289 45.8858C8.96504 46.6338 7.97061 47.0457 6.91299 47.0457C5.85527 47.0457 4.86104 46.6338 4.11309 45.8858C3.36523 45.1379 2.95332 44.1436 2.95332 43.0859C2.95332 42.0283 3.36523 41.034 4.11318 40.286L25.0726 19.3267C25.4745 18.9247 25.6101 18.3277 25.4212 17.7916C24.0041 13.771 25.0349 9.22667 28.0471 6.21446C30.176 4.08556 33.0196 2.95294 35.9178 2.95294C36.5258 2.95294 37.1364 3.00274 37.743 3.10382L31.3396 9.50714C30.9852 9.86153 30.8347 10.3716 30.94 10.8617L32.1899 16.6755C32.3121 17.2433 32.7556 17.6867 33.3232 17.8088L39.1371 19.0588C39.6275 19.1642 40.1372 19.0137 40.4918 18.6592L46.895 12.2559C47.4775 15.7542 46.36 19.3764 43.7846 21.9519Z" fill="white"/>
</g>
<defs>
<clipPath id="clip0_1486_220">
<rect width="50" height="50" fill="white"/>
</clipPath>
</defs>
</svg>
