<svg width="50" height="50" viewBox="0 0 50 50" fill="none" xmlns="http://www.w3.org/2000/svg">
<g clip-path="url(#clip0_1486_222)">
<path d="M39.5944 39.8626C39.169 39.5374 38.5611 39.619 38.2361 40.0441C37.9112 40.4692 37.9925 41.0773 38.4176 41.4023L40.0734 42.6678C40.2485 42.8016 40.4555 42.8669 40.6614 42.8669C40.9264 42.8669 41.1895 42.7586 41.3799 42.5484L44.5448 39.0539C44.904 38.6572 44.8737 38.0445 44.4771 37.6853C44.0805 37.3261 43.4676 37.3565 43.1085 37.753L40.542 40.5869L39.5944 39.8626Z" fill="white"/>
<path d="M49.8822 34.6906C49.8712 34.1966 49.4901 33.7902 48.998 33.7472C46.693 33.5457 43.8566 31.9974 41.7716 29.8029C41.5886 29.6105 41.3349 29.5015 41.0694 29.5014C41.0693 29.5014 41.0692 29.5014 41.0691 29.5014C40.8038 29.5014 40.55 29.6102 40.3671 29.8024C39.4312 30.7862 38.3449 31.6395 37.2238 32.3004C35.2567 30.1044 32.8356 28.4865 29.9979 27.4681C29.9732 27.4581 29.9482 27.4492 29.9226 27.4412C29.7016 27.363 29.478 27.2883 29.2519 27.2171C31.6517 24.8237 33.266 21.6784 33.266 18.8568V17.3345C34.4004 16.8406 35.196 15.7083 35.196 14.3932C35.196 13.0271 34.3361 11.8586 33.1295 11.3989C32.6315 6.56387 29.2251 2.49943 24.5459 1.15476C24.4076 0.496185 23.8225 0 23.1235 0H19.6124C18.9382 0 18.3715 0.461982 18.2079 1.08568C15.9063 1.69949 13.8039 3.00967 12.2276 4.83124C10.6278 6.68014 9.63287 8.98908 9.38018 11.3994C8.173 11.8594 7.31289 13.0276 7.31289 14.3932C7.31289 15.7089 8.10963 16.8414 9.24559 17.3351V18.8569C9.24559 21.6759 10.8601 24.8223 13.2598 27.2174C13.0404 27.2864 12.8231 27.3586 12.6082 27.4344C12.566 27.4464 12.5249 27.4612 12.4849 27.4787C9.30877 28.6245 6.65712 30.5211 4.58052 33.1402C2.58338 35.6592 1.16362 38.7699 0.360767 42.3867C0.0750321 43.6792 -0.139875 45.3035 0.741457 46.4009C1.60235 47.4729 3.14274 47.6102 4.38868 47.6102H10.7269C11.262 47.6102 11.6958 47.1764 11.6958 46.6413C11.6958 46.1063 11.262 45.6724 10.7269 45.6724H4.38868C3.22955 45.6724 2.51081 45.5092 2.2524 45.1875C1.97867 44.8466 1.97887 44.045 2.25269 42.8057C3.25969 38.27 5.72191 32.7196 11.6543 29.9171C11.4719 33.1904 13.2455 35.33 14.3728 36.688C14.5454 36.8959 14.7969 37.0222 15.0668 37.0367C15.3364 37.0516 15.6002 36.9522 15.7939 36.7638L21.2545 31.4534L26.7178 36.764C26.8991 36.9402 27.1415 37.0381 27.3931 37.0381C27.4105 37.0381 27.4278 37.0377 27.4454 37.0367C27.7152 37.0221 27.9668 36.8955 28.1393 36.6873C29.2651 35.3282 31.0361 33.1873 30.8553 29.9209C32.5764 30.7373 34.097 31.8292 35.4047 33.1894C34.6238 33.4916 33.856 33.6847 33.1401 33.7473C32.6483 33.7902 32.2674 34.1963 32.2559 34.69C32.1748 38.1541 32.7521 40.636 34.3142 43.541C34.3274 43.5656 34.8553 44.5118 35.6778 45.6726H19.4988C18.9637 45.6726 18.5299 46.1065 18.5299 46.6415C18.5299 47.1766 18.9637 47.6104 19.4988 47.6104H37.2167C38.3848 48.9014 39.7625 50.0002 41.069 50.0002C44.2211 50.0002 47.7891 43.6056 47.8234 43.5416C49.3829 40.6362 49.9601 38.1547 49.8822 34.6906ZM31.1518 11.1897H25.8171C24.8092 8.55685 24.6185 6.38578 24.5843 3.1987C28.0791 4.43476 30.6197 7.51845 31.1518 11.1897ZM20.0964 1.93785H22.6394C22.6455 5.68835 22.7406 8.22848 23.7559 11.1897H18.9818C19.9954 8.22838 20.0904 5.68796 20.0964 1.93785ZM18.1524 3.12226C18.1204 6.35129 17.9352 8.53572 16.9211 11.1898H11.3593C11.912 7.47078 14.5854 4.30347 18.1524 3.12226ZM10.5191 13.1275H17.001C17.0581 13.1739 17.1133 13.1798 17.1597 13.1275H31.9924C32.6903 13.1275 33.2581 13.6952 33.2581 14.3932C33.2581 15.0927 32.6904 15.6618 31.9924 15.6618H10.5191C9.81978 15.6618 9.25073 15.0927 9.25073 14.3932C9.25073 13.6953 9.81968 13.1275 10.5191 13.1275ZM11.1834 18.8569V17.5995H31.328V18.8569C31.328 22.551 27.7492 27.1198 23.6693 28.6343C21.884 29.2977 20.6166 29.2971 18.8272 28.6322C14.7553 27.1114 11.1834 22.5434 11.1834 18.8569ZM15.2047 34.6337C14.2018 33.3244 13.2362 31.6056 13.7003 29.1105C14.1277 28.9725 14.5693 28.8467 15.0273 28.7353C16.0043 29.4522 17.0581 30.0401 18.1506 30.4481C18.5022 30.5787 18.8405 30.6864 19.1715 30.7759L15.2047 34.6337ZM27.3059 34.6331L23.3366 30.7747C23.6634 30.6861 23.9972 30.5798 24.3439 30.4509C25.4418 30.0434 26.5008 29.4543 27.4824 28.7351C27.9347 28.8452 28.377 28.9699 28.8085 29.1096C29.2737 31.6012 28.3085 33.3218 27.3059 34.6331ZM46.1156 42.6256C44.9698 44.7641 42.2863 48.0621 41.069 48.0621C39.8516 48.0621 37.1682 44.7641 36.0217 42.6243C34.7412 40.2434 34.2158 38.258 34.1873 35.5547C35.2326 35.3558 36.3208 34.9657 37.3909 34.421C37.4285 34.4046 37.4651 34.3853 37.501 34.3638C38.7506 33.7143 39.9726 32.8548 41.0686 31.8333C43.1322 33.7585 45.6445 35.1163 47.9499 35.5548C47.9194 38.2585 47.394 40.2443 46.1156 42.6256Z" fill="white"/>
<path d="M15.1126 45.6724C14.5775 45.6724 14.1437 46.1062 14.1437 46.6413C14.1437 47.1763 14.5775 47.6102 15.1126 47.6102H15.1181C15.6533 47.6102 16.0842 47.1763 16.0842 46.6413C16.0842 46.1062 15.6477 45.6724 15.1126 45.6724Z" fill="white"/>
</g>
<defs>
<clipPath id="clip0_1486_222">
<rect width="50" height="50" fill="white"/>
</clipPath>
</defs>
</svg>
